<?xml version="1.0" standalone="no"?>
<!DOCTYPE svg PUBLIC "-//W3C//DTD SVG 20010904//EN"
 "http://www.w3.org/TR/2001/REC-SVG-20010904/DTD/svg10.dtd">
<svg version="1.0" xmlns="http://www.w3.org/2000/svg"
 width="1110.000000pt" height="1110.000000pt" viewBox="0 0 1110.000000 1110.000000"
 preserveAspectRatio="xMidYMid meet">
<metadata>
Created by potrace 1.11, written by Peter Selinger 2001-2013
</metadata>
<g transform="translate(0.000000,1110.000000) scale(0.100000,-0.100000)"
fill="#000000" stroke="none">
<path d="M7690 8495 c0 -18 32 -67 67 -102 23 -23 54 -64 69 -90 14 -26 48
-84 74 -128 27 -44 58 -102 70 -130 12 -27 32 -70 44 -94 11 -25 21 -47 22
-50 0 -3 6 -19 13 -36 7 -16 14 -37 16 -45 2 -8 4 -16 5 -17 2 -2 3 -6 4 -10
1 -5 4 -13 8 -19 4 -6 9 -22 12 -37 2 -15 8 -32 12 -39 11 -18 14 -255 4 -317
-10 -59 -17 -77 -91 -224 -85 -169 -71 -151 -328 -401 -56 -55 -119 -120 -139
-145 -20 -25 -43 -53 -52 -61 -9 -8 -38 -43 -64 -77 -25 -34 -52 -68 -59 -75
-27 -28 -129 -191 -213 -338 -49 -85 -93 -158 -99 -162 -5 -4 -6 -8 -2 -8 5 0
0 -12 -11 -27 -11 -16 -23 -38 -26 -50 -4 -13 -12 -23 -17 -23 -5 0 -8 -3 -7
-7 0 -5 -27 -66 -61 -138 -34 -71 -66 -139 -71 -150 -14 -32 -43 -100 -44
-105 -1 -3 -30 -76 -64 -164 -51 -129 -166 -461 -177 -509 -1 -7 -4 -19 -7
-27 -3 -8 -38 -141 -78 -295 -39 -154 -89 -342 -111 -419 -21 -76 -39 -147
-39 -156 0 -10 -12 -49 -26 -86 -14 -38 -28 -78 -30 -88 -2 -11 -10 -40 -19
-65 -17 -54 -21 -97 -11 -128 8 -26 33 -21 47 11 15 34 48 86 69 108 11 12 20
28 20 35 0 7 7 13 15 13 8 0 15 4 15 9 0 5 8 12 18 15 9 4 35 22 57 41 52 46
126 88 229 129 81 33 113 40 226 52 30 3 71 9 90 14 19 5 67 11 105 15 39 3
84 8 100 10 17 2 70 7 119 10 49 4 98 8 110 10 11 2 44 6 71 10 117 14 304 50
485 93 42 10 57 6 96 -28 46 -41 55 -55 75 -132 26 -96 27 -374 3 -528 -12
-77 -13 -86 -19 -110 -10 -47 -14 -75 -19 -126 -3 -29 -11 -65 -17 -80 -6 -16
-15 -38 -19 -49 -4 -11 -15 -38 -23 -60 -9 -22 -21 -60 -28 -85 -6 -25 -28
-82 -49 -128 -22 -45 -39 -85 -39 -89 1 -3 -5 -10 -13 -14 -10 -7 -10 -9 0 -9
22 0 126 76 154 112 14 18 35 43 46 56 20 23 127 181 224 332 65 100 175 312
182 350 4 20 30 70 36 70 7 0 24 56 37 120 7 35 9 42 18 65 4 11 28 72 52 135
64 164 202 356 289 399 27 14 86 46 132 73 45 26 84 48 87 48 8 0 93 60 105
75 7 8 18 15 24 15 6 0 28 11 49 25 20 14 37 23 37 19 0 -4 8 3 19 14 10 12
23 22 29 22 6 0 17 9 25 20 8 11 16 18 19 15 6 -6 228 215 298 296 126 146
233 319 279 449 11 30 45 114 77 185 32 73 79 204 106 300 53 186 56 197 62
223 2 9 25 87 50 172 26 85 48 162 50 170 2 8 10 29 16 45 6 17 13 37 15 45 2
8 13 51 25 95 22 85 28 112 36 160 14 79 23 121 34 150 5 14 7 25 5 25 -3 0 1
16 9 35 8 19 13 35 11 35 -3 0 0 12 6 28 6 15 12 34 14 42 7 35 49 149 77 209
16 36 41 95 55 131 26 70 113 228 201 365 6 11 15 27 19 35 4 8 13 21 19 28
69 69 103 139 76 156 -12 7 -94 -35 -202 -105 -92 -60 -349 -198 -380 -204 -8
-2 -40 -10 -70 -18 -30 -9 -73 -18 -95 -21 -22 -3 -74 -16 -115 -29 -91 -30
-103 -32 -240 -52 -50 -7 -323 -62 -495 -101 -60 -13 -155 -33 -210 -43 -55
-11 -118 -24 -140 -30 -22 -6 -68 -13 -103 -16 -34 -3 -72 -9 -84 -14 -33 -12
-99 4 -157 38 -29 17 -56 31 -61 31 -12 0 -141 127 -172 170 -14 19 -35 56
-46 81 -12 25 -28 52 -37 59 -8 7 -15 16 -15 21 0 5 -18 36 -40 68 -22 32 -40
64 -40 70 0 6 -4 11 -10 11 -5 0 -9 3 -8 8 2 10 -24 64 -38 79 -7 7 -34 42
-60 78 -26 36 -51 65 -56 65 -4 0 -8 5 -8 10 0 18 -62 85 -129 140 -24 19 -55
45 -70 58 -53 48 -321 220 -321 207z"/>
<path d="M563 7486 c-91 -20 -120 -69 -109 -190 7 -83 11 -108 31 -196 8 -36
16 -78 19 -95 3 -16 10 -55 16 -85 6 -30 13 -64 14 -75 2 -11 6 -29 9 -40 3
-11 9 -33 11 -50 3 -16 21 -86 40 -155 18 -69 41 -155 50 -193 10 -37 23 -85
31 -107 8 -22 12 -40 10 -40 -2 0 3 -12 10 -27 8 -16 33 -86 55 -158 23 -71
70 -218 106 -325 36 -107 80 -242 98 -300 30 -96 153 -408 212 -538 13 -29 24
-57 24 -61 0 -40 118 -185 182 -224 80 -49 346 -187 361 -187 5 0 23 -7 40
-15 97 -44 255 -99 323 -111 15 -3 31 -7 36 -10 4 -3 17 -7 28 -10 31 -6 52
-12 88 -23 17 -5 32 -7 32 -4 0 3 6 0 13 -6 8 -6 31 -13 52 -17 21 -3 66 -14
99 -24 34 -11 73 -21 88 -24 15 -2 32 -7 38 -11 5 -3 19 -8 30 -10 11 -2 59
-16 107 -30 92 -28 200 -54 355 -85 54 -10 126 -26 160 -34 35 -8 133 -28 218
-45 135 -27 184 -35 320 -56 52 -7 107 -15 160 -21 30 -3 58 -8 61 -9 3 -2 37
-7 75 -10 38 -4 71 -8 74 -10 7 -4 305 -19 366 -18 83 1 154 27 197 71 60 62
86 188 63 310 -7 35 -98 273 -139 363 -13 30 -28 65 -32 79 -10 33 -106 273
-146 365 -5 11 -18 47 -30 80 -11 33 -41 102 -65 153 -24 50 -44 95 -44 98 0
3 -9 25 -20 50 -27 57 -42 99 -38 100 2 0 -2 7 -8 15 -7 8 -15 29 -19 47 -3
17 -11 32 -16 32 -5 0 -9 5 -9 11 0 6 -38 88 -84 182 -46 95 -100 208 -121
252 -167 363 -277 554 -339 587 -14 7 -62 34 -108 59 -191 106 -464 237 -625
299 -59 23 -117 46 -128 50 -39 17 -360 116 -535 166 -30 8 -73 21 -95 29 -22
7 -85 23 -140 35 -55 12 -129 30 -165 40 -50 14 -386 75 -525 95 -11 2 -69 11
-130 20 -60 9 -135 18 -165 20 -30 2 -75 6 -100 10 -111 13 -140 16 -225 19
-49 2 -113 -2 -142 -8z"/>
</g>
</svg>
